<?xml version="1.0" standalone="no"?>
<!DOCTYPE svg PUBLIC "-//W3C//DTD SVG 20010904//EN"
 "http://www.w3.org/TR/2001/REC-SVG-20010904/DTD/svg10.dtd">
<svg version="1.0" xmlns="http://www.w3.org/2000/svg"
 width="50pt" height="67pt" viewBox="0 0 948.000000 1280.000000"
 preserveAspectRatio="xMidYMid meet">
<g transform="translate(0.000000,1280.000000) scale(0.100000,-0.100000)"
fill="#000000" stroke="none">
<path d="M4522 12739 c-1038 -46 -2010 -476 -2699 -1193 -498 -518 -810 -1145
-902 -1816 -26 -183 -31 -421 -31 -1452 l0 -1088 -420 0 -421 0 -24 -25 -25
-24 0 -3426 0 -3426 25 -24 24 -25 4659 0 4659 0 21 23 22 23 0 3428 0 3427
-25 24 -24 25 -421 0 -420 0 0 1078 c0 1063 -6 1308 -35 1499 -102 680 -408
1288 -905 1797 -318 327 -648 565 -1064 770 -475 234 -1053 382 -1566 401 -80
3 -170 7 -200 9 -30 1 -133 -1 -228 -5z m449 -1179 c561 -55 1068 -255 1474
-583 94 -75 282 -264 356 -357 245 -307 405 -687 449 -1065 6 -56 10 -515 10
-1228 l0 -1137 -2547 2 -2548 3 0 1135 c0 1250 0 1239 64 1491 202 800 886
1439 1779 1663 130 32 356 70 472 79 106 8 396 6 491 -3z"/>
</g>
</svg>


