<?xml version="1.0" standalone="no"?>
<!DOCTYPE svg PUBLIC "-//W3C//DTD SVG 20010904//EN"
 "http://www.w3.org/TR/2001/REC-SVG-20010904/DTD/svg10.dtd">
<svg version="1.0" xmlns="http://www.w3.org/2000/svg"
 width="71pt" height="73pt" viewBox="0 0 1280.000000 1194.000000"
 preserveAspectRatio="xMidYMid meet">
<g transform="translate(0.000000,1194.000000) scale(0.100000,-0.100000)"
fill="#000000" stroke="none">
<path d="M3585 11919 c-282 -44 -480 -117 -695 -256 -363 -235 -627 -622 -714
-1045 -27 -133 -60 -595 -51 -714 29 -370 176 -694 431 -948 201 -201 450
-336 733 -396 l101 -22 2847 -4 c1567 -2 2922 -5 3013 -6 125 -1 185 3 250 16
705 148 1199 733 1204 1426 1 170 -18 438 -39 563 -125 710 -707 1275 -1420
1377 -44 6 -107 15 -141 21 -82 12 -289 12 -394 -2 -408 -52 -613 -104 -882
-225 -433 -194 -822 -528 -1087 -933 -143 -219 -227 -406 -327 -729 -9 -31
-28 -1 -54 83 -86 287 -237 578 -428 825 -90 116 -287 316 -404 411 -241 194
-493 333 -788 434 -192 65 -324 93 -650 134 -128 16 -366 12 -505 -10z m371
-829 c309 -25 574 -113 814 -270 454 -297 733 -765 779 -1304 8 -87 7 -123 -1
-133 -9 -11 -174 -13 -967 -11 -1068 4 -993 -1 -1156 77 -208 99 -367 292
-426 517 -17 65 -21 111 -21 259 -1 218 11 284 84 433 106 218 304 371 548
423 100 21 171 23 346 9z m5220 -25 c274 -69 503 -278 596 -545 54 -156 68
-406 29 -552 -59 -226 -210 -412 -416 -514 -171 -84 -90 -78 -1166 -82 -794
-2 -958 0 -967 11 -14 16 0 199 24 322 132 680 664 1217 1341 1355 212 42 401
44 559 5z"/>
<path d="M0 6825 l0 -845 2770 0 2770 0 -2 843 -3 842 -2767 3 -2768 2 0 -845z"/>
<path d="M7267 7663 c-4 -3 -7 -384 -7 -845 l0 -838 2770 0 2770 0 0 845 0
845 -2763 0 c-1520 0 -2767 -3 -2770 -7z"/>
<path d="M864 5097 c-2 -7 -3 -906 -1 -1997 3 -2184 -1 -2019 63 -2215 110
-331 343 -597 659 -750 111 -53 225 -88 377 -115 114 -20 151 -20 1847 -20
l1731 0 -2 2553 -3 2552 -2333 3 c-1893 2 -2334 0 -2338 -11z"/>
<path d="M7267 5103 c-4 -3 -7 -1153 -7 -2555 l0 -2548 1731 0 c1696 0 1733 0
1847 20 152 27 266 62 377 115 320 155 557 428 663 765 60 191 57 71 57 2225
l0 1980 -2331 3 c-1282 1 -2334 -1 -2337 -5z"/>
</g>
</svg>
